<svg width="34" height="34" viewBox="0 0 34 34" fill="none" xmlns="http://www.w3.org/2000/svg">
<path d="M27.625 8.5V2.125C27.625 0.951602 26.6734 0 25.5 0H2.125C0.951602 0 0 0.951602 0 2.125V8.5C0 9.6734 0.951602 10.625 2.125 10.625H25.5C26.6734 10.625 27.625 9.6734 27.625 8.5ZM29.75 4.25V12.75C29.75 13.9234 28.7984 14.875 27.625 14.875H17C14.6525 14.875 12.75 16.7775 12.75 19.125V21.25C11.5766 21.25 10.625 22.2016 10.625 23.375V31.875C10.625 33.0484 11.5766 34 12.75 34H17C18.1734 34 19.125 33.0484 19.125 31.875V23.375C19.125 22.2016 18.1734 21.25 17 21.25V19.125H27.625C31.1459 19.125 34 16.2709 34 12.75V8.5C34 6.15254 32.0975 4.25 29.75 4.25Z" fill="black"/>
<rect width="27.62" height="10.62" rx="2.1" fill="#1DA1F2"/>
</svg>
