<svg width="30" height="28" viewBox="0 0 30 28" fill="none" xmlns="http://www.w3.org/2000/svg">
<path d="M13.0961 14.5441C12.9615 14.4049 12.8547 14.2396 12.7818 14.0576C12.709 13.8755 12.6714 13.6803 12.6714 13.4832C12.6714 13.2861 12.709 13.091 12.7818 12.9089C12.8547 12.7269 12.9615 12.5615 13.0961 12.4224C13.3685 12.1435 13.7359 11.9871 14.1187 11.9871C14.5015 11.9871 14.8689 12.1435 15.1414 12.4224C15.4126 12.7038 15.565 13.0854 15.565 13.4832C15.565 13.8811 15.4126 14.2627 15.1414 14.5441C14.8702 14.8254 14.5023 14.9835 14.1187 14.9835C13.7352 14.9835 13.3673 14.8254 13.0961 14.5441ZM4.43357 2.02634C4.25048 1.85425 4.01061 1.76179 3.76361 1.7681C3.51661 1.7744 3.28141 1.879 3.10671 2.06023C2.932 2.24145 2.83117 2.48543 2.82509 2.74164C2.81901 2.99786 2.90814 3.24668 3.07404 3.43661L6.22623 6.70644L7.58576 5.29617L4.43357 2.02634ZM27.317 18.7624C27.1331 18.5779 26.8872 18.4747 26.6312 18.4747C26.3753 18.4747 26.1294 18.5779 25.9455 18.7624C25.8372 18.8872 23.2625 21.5954 23.2625 24.4659C23.2625 25.3927 23.6174 26.2815 24.2492 26.9369C24.8809 27.5922 25.7378 27.9604 26.6312 27.9604C27.5247 27.9604 28.3816 27.5922 29.0133 26.9369C29.6451 26.2815 30 25.3927 30 24.4659C30 21.5954 27.4253 18.8872 27.317 18.7624ZM26.9922 14.4193C26.9891 14.1521 26.8855 13.8968 26.7034 13.7079L13.7698 0.291577C13.5894 0.104859 13.3449 0 13.0901 0C12.8352 0 12.5907 0.104859 12.4103 0.291577L7.58576 5.29617L12.5186 10.4131C13.2303 10.0136 14.057 9.89317 14.8473 10.074C15.6376 10.2547 16.3387 10.7246 16.8225 11.3976C17.3062 12.0706 17.5403 12.9017 17.4818 13.739C17.4233 14.5763 17.0761 15.3638 16.5039 15.9574C15.9316 16.551 15.1725 16.9111 14.3653 16.9718C13.5582 17.0325 12.7569 16.7897 12.1081 16.2879C11.4593 15.7861 11.0064 15.0588 10.8321 14.239C10.6578 13.4192 10.7739 12.5617 11.159 11.8234L6.22623 6.70644L0.848257 12.2976C0.579433 12.5748 0.366097 12.9044 0.22052 13.2675C0.0749438 13.6305 0 14.0198 0 14.413C0 14.8062 0.0749438 15.1955 0.22052 15.5586C0.366097 15.9216 0.579433 16.2512 0.848257 16.5284L11.0508 27.1242C11.5941 27.6851 12.3295 28 13.0961 28C13.8627 28 14.598 27.6851 15.1414 27.1242L26.7034 15.1182C26.8848 14.9338 26.9886 14.6826 26.9922 14.4193Z" fill="black"/>
<path d="M27.317 18.7624C27.1331 18.5779 26.8872 18.4747 26.6312 18.4747C26.3753 18.4747 26.1294 18.5779 25.9455 18.7624C25.8372 18.8872 23.2625 21.5954 23.2625 24.4659C23.2625 25.3927 23.6174 26.2815 24.2492 26.9369C24.8809 27.5922 25.7378 27.9604 26.6312 27.9604C27.5247 27.9604 28.3816 27.5922 29.0133 26.9369C29.6451 26.2815 30 25.3927 30 24.4659C30 21.5954 27.4253 18.8872 27.317 18.7624Z" fill="#1DA1F2"/>
</svg>
