<svg width="30" height="30" viewBox="0 0 30 30" fill="none" xmlns="http://www.w3.org/2000/svg">
<path d="M5 6.25C5 5.5625 5.5625 5 6.25 5H12.5C13.1875 5 13.75 4.4375 13.75 3.75C13.75 3.0625 13.1875 2.5 12.5 2.5H5C3.625 2.5 2.5 3.625 2.5 5V12.5C2.5 13.1875 3.0625 13.75 3.75 13.75C4.4375 13.75 5 13.1875 5 12.5V6.25ZM25 2.5H17.5C16.8125 2.5 16.25 3.0625 16.25 3.75C16.25 4.4375 16.8125 5 17.5 5H23.75C24.4375 5 25 5.5625 25 6.25V12.5C25 13.1875 25.5625 13.75 26.25 13.75C26.9375 13.75 27.5 13.1875 27.5 12.5V5C27.5 3.625 26.375 2.5 25 2.5ZM25 23.75C25 24.4375 24.4375 25 23.75 25H17.5C16.8125 25 16.25 25.5625 16.25 26.25C16.25 26.9375 16.8125 27.5 17.5 27.5H25C26.375 27.5 27.5 26.375 27.5 25V17.5C27.5 16.8125 26.9375 16.25 26.25 16.25C25.5625 16.25 25 16.8125 25 17.5V23.75ZM3.75 16.25C3.0625 16.25 2.5 16.8125 2.5 17.5V25C2.5 26.375 3.625 27.5 5 27.5H12.5C13.1875 27.5 13.75 26.9375 13.75 26.25C13.75 25.5625 13.1875 25 12.5 25H6.25C5.5625 25 5 24.4375 5 23.75V17.5C5 16.8125 4.4375 16.25 3.75 16.25Z" fill="#111111"/>
</svg>
